<svg version="1" xmlns="http://www.w3.org/2000/svg" width="933.333" height="933.333" viewBox="0 0 700.000000 700.000000"><path d="M338.5 82.6c-68.8 3.8-130.1 30.8-177.6 78.3-42.5 42.5-68.8 96.5-76.5 156.7-3.3 25.9-1.8 61.6 3.7 87.3 22.1 103.9 103.1 184.9 207 207 33.8 7.2 76 7.2 109.8 0 103.9-22.1 184.9-103.1 207-207 7.2-33.8 7.2-76 0-109.8-22.1-103.9-103.1-184.9-207-207-18.2-3.9-49.1-6.4-66.4-5.5zm-22.9 18.2c-.3.5-2.4 1.2-4.6 1.6-2.7.4-4 1.1-4 2.2 0 1.3.8 1.5 5.3.9 2.8-.4 4.9-.4 4.5 0-.4.4-.1 1.7.7 2.9 2.2 3 1.9 8.2-.6 10.7-2.2 2.2-8.9 2.4-9.7.2-.2-.9.5-1.1 2.7-.7 5.4 1.1 8.7-3.7 6.1-8.7-1.5-2.6-3.9-2.4-7.1.7l-2.8 2.7-.7-2.7c-.4-1.7-1.3-2.6-2.8-2.7-1.9-.2-1.9-.2.3-.6 1.9-.4 2.2-.9 1.8-3.3-.6-2.7-.5-2.8 5.1-3.7 6.2-1 6.7-.9 5.8.5zm76.2.8c2.6 1.8 2.9 5.6.6 7.9-.9.8-3.4 2.5-5.5 3.6-4.3 2.1-5.2 4.9-1.6 4.9 3.4 0 6.7 1.1 6.7 2.2s-10 .1-11.3-1.1c-1.6-1.6 1.3-5.9 5.7-8.5 2.6-1.5 4.4-3.1 4.1-3.6-.3-.4 0-1 .7-1.2.7-.3.8-1 .4-1.7-.6-.9-2.1-1.1-4.7-.7-4.3.7-5.2-.5-1.6-2.2 3.1-1.5 3.9-1.4 6.5.4zm-52.5 2.1c-1.8.2-4.8.2-6.5 0-1.8-.2-.4-.4 3.2-.4s5 .2 3.3.4zm28 0c-1.8.2-4.8.2-6.5 0-1.8-.2-.4-.4 3.2-.4s5 .2 3.3.4zm41.3.1c1.6 1 3.4 4.7 3.4 6.9 0 3.5-2.1 9.4-4.1 11.4-2.5 2.5-6.4 2.4-9-.2-1.8-1.8-2.1-3-1.7-8 .3-4.7.1-5.9-1.1-6.2-1.1-.3-.9-.5.5-.6 1.1 0 2.9-1 3.9-2.1 1.8-2 6-2.6 8.1-1.2zm-84.3.9c-.7.2-2.1.2-3 0-1-.3-.4-.5 1.2-.5 1.7 0 2.4.2 1.8.5zm55 0c-.7.2-2.1.2-3 0-1-.3-.4-.5 1.2-.5 1.7 0 2.4.2 1.8.5zm8 1c-.7.2-2.1.2-3 0-1-.3-.4-.5 1.2-.5 1.7 0 2.4.2 1.8.5zm-88.6 2.9c-.3.3-1.2.4-1.9.1-.8-.3-.5-.6.6-.6 1.1-.1 1.7.2 1.3.5zm-4 1c-.3.3-1.2.4-1.9.1-.8-.3-.5-.6.6-.6 1.1-.1 1.7.2 1.3.5zm-4 1c-.3.3-1.2.4-1.9.1-.8-.3-.5-.6.6-.6 1.1-.1 1.7.2 1.3.5zm-4 1c-.3.3-1.2.4-1.9.1-.8-.3-.5-.6.6-.6 1.1-.1 1.7.2 1.3.5zm129 0c-.3.3-1.2.4-1.9.1-.8-.3-.5-.6.6-.6 1.1-.1 1.7.2 1.3.5zm-136 2c-.3.3-1.2.4-1.9.1-.8-.3-.5-.6.6-.6 1.1-.1 1.7.2 1.3.5zm143 0c-.3.3-1.2.4-1.9.1-.8-.3-.5-.6.6-.6 1.1-.1 1.7.2 1.3.5zM266 118c-.8.5-1.9 1-2.5 1-.5 0-.3-.5.5-1s2-1 2.5-1c.6 0 .3.5-.5 1zm170 0c.8.5 1.1 1 .5 1-.5 0-1.7-.5-2.5-1s-1-1-.5-1c.6 0 1.7.5 2.5 1zm-183 1.5c.7.8 2 1.5 2.9 1.5 1 0 1.2.3.5.8-2.5 1.6-6.8 14.2-4.9 14.2.4 0 2-.7 3.6-1.6 5.5-2.8 6.8-1.1 1.5 1.9-2.8 1.5-5.5 2.6-6.2 2.3-2.3-.9-2.5-5.5-.3-9.7 1.1-2.3 1.8-4.3 1.6-4.6-.3-.2-1.9.3-3.7 1.2-1.8.9-3.4 1.5-3.6 1.2-.2-.2 1.4-1.2 3.6-2.2 4.3-1.9 5-3.2 2.3-4.2-1-.4-2.4.3-3.9 2-2.6 3.1-3.4 3.3-3.4 1.2 0-4.2 7.4-7.2 10-4zm199.1 5.1c2.4 1.2 3.7 1.3 6.4.4 4.7-1.6 5.8-.6 3.6 3.3-1 1.8-3 5.2-4.4 7.7-1.9 3.3-2.3 4.8-1.5 5.7 1.8 2.2.2 2.6-3.1.8-3.2-1.6-4.2-3.8-1.6-3.3 1 .2 2.9-2 5.2-6.1 2.3-4.1 3.1-6.2 2.1-5.8-.9.3-3.7-.5-6.4-1.8s-4.5-2.4-4.1-2.4c.4-.1 2.2.6 3.8 1.5zM236 126.5c0 .9.6 1.8 1.4 2.1.8.3 1.3 1.1 1.1 1.7-.8 2.1 4.1 10.2 5.9 9.9 2.7-.5 1.8 1.7-1.5 3.3-3.2 1.7-5.1 1.3-3.1-.7.8-.8.5-2.3-1.4-5.9-1.3-2.7-2.7-4.9-3-4.9-.2 0-2.3.9-4.4 2-2.2 1.1-4 1.8-4 1.5 0-.2 1.8-1.4 4-2.5s4-2.5 4-3.1c0-.8-.5-.7-1.5.1-1.2 1-1.5 1-1.5-.3 0-2.6 1.2-4.7 2.6-4.7.8 0 1.4.7 1.4 1.5zm237 9c0 .3-2.2-.6-5-2-2.7-1.4-5-2.8-5-3 0-.3 2.3.6 5 2 2.8 1.4 5 2.8 5 3zm-247 1c0 .2-1 .9-2.2 1.5-2.2 1.1-2.2 1-.4-.4 2.1-1.7 2.6-1.9 2.6-1.1zm252 2.1c0 .2-.9 0-2-.6s-2-1.3-2-1.6c0-.2.9 0 2 .6s2 1.3 2 1.6zm-257 .8c0 .1-3.3 2.5-7.2 5.1-8.9 5.9-17.2 12.2-26 19.7l-6.7 5.8 2.6 4.6c2 3.5 2.4 5.4 2 8.6-.5 3.9-2.1 6.7-3.2 5.6-.3-.2 0-1.9.6-3.7.6-1.7.8-4.3.5-5.7l-.7-2.6-2.1 2.7c-1.8 2.3-2.7 2.6-6.6 2.3l-4.6-.3-8.2 9.8c-4.6 5.4-11.1 14-14.5 19-6.5 9.6-9.8 13.8-6.1 7.7 4.6-7.5 14.5-20.9 21.6-29.2 6.5-7.5 7.5-9.1 7-11.5-.4-2 .1-3.7 1.7-5.7 1.9-2.4 2.7-2.8 6-2.3 2.9.4 4.2 0 5.6-1.5 3.2-3.5 19.5-16.4 28.7-22.7 8.8-6 9.6-6.5 9.6-5.7zm273 9.5c4.7 3.3 12.4 9.4 17.2 13.6 7.3 6.3 9.4 7.5 12.3 7.5 3.9 0 4 .2 2.3 3-1.7 2.7 1.4 6 5.8 6 4.3 0 6.7 2.5 6.1 6.3-.3 2.5.6 4.3 5.9 10.8 7.3 9.1 20.1 27.8 16.7 24.4-.6-.6-3.3-4.4-6.1-8.6-9.3-13.9-17-22.9-19.6-22.9-2.1 0-2.5.6-2.8 3.2-.4 4.5-4.7 6.7-8.4 4.3-5.5-3.6-5.2-10 .6-11.1 4-.8 4.9-4.8 1.9-8l-2.3-2.4-4.3 4.2c-3 2.9-4.1 4.8-3.7 6 .8 2.7-.9 2.2-4.2-1.3-2.7-3-2.7-3.1-.7-2.6 1.8.4 3.5-.6 7.5-4.5 2.9-2.7 4.8-4.7 4.2-4.4-.6.3-2.4-.9-4-2.5-4.3-4.6-21.3-18.1-30.1-24-4.3-2.8-8.2-5.6-8.8-6.2-1.6-1.7 5.4 2.8 14.5 9.2zm-143-.5v5.5l3.8.4 3.7.4-4.3.1-4.3.2.1 35.7c.1 19.7.1 59.5 0 88.5V332h-5.9l-13.6-41.8c-7.5-22.9-18.1-55.4-23.7-72.2-5.5-16.8-11.6-35.5-13.5-41.5-2-6.1-4-11.2-4.5-11.3-.4-.2-.6-.7-.3-1.2.3-.4-.2-2.7-1-5-1.9-5.4-1.9-6 .3-5.9.9 0 1.2.3.5.5-.8.4-.7 1.7.4 5 .8 2.4 1.7 4.4 1.9 4.4.2 0 4.6-1.1 9.8-2.4 10.9-2.9 26.5-5.3 39.5-6.3l9.1-.6v-5.3c0-3 .5-5.4 1-5.4.6 0 1 2.4 1 5.4zm-10.2-3.7c-1 .2-2.8.2-4 0-1.3-.2-.5-.4 1.7-.4 2.2-.1 3.2.1 2.3.4zm23.5 0c-1.8.2-4.8.2-6.5 0-1.8-.2-.4-.4 3.2-.4s5 .2 3.3.4zm-35.6.9c-.3.3-1.2.4-1.9.1-.8-.3-.5-.6.6-.6 1.1-.1 1.7.2 1.3.5zm45.6.1c-.7.2-2.1.2-3 0-1-.3-.4-.5 1.2-.5 1.7 0 2.4.2 1.8.5zm-53.6.9c-.3.3-1.2.4-1.9.1-.8-.3-.5-.6.6-.6 1.1-.1 1.7.2 1.3.5zm61.6.1c-.7.2-2.1.2-3 0-1-.3-.4-.5 1.2-.5 1.7 0 2.4.2 1.8.5zm5.4.9c-.3.3-1.2.4-1.9.1-.8-.3-.5-.6.6-.6 1.1-.1 1.7.2 1.3.5zm5 1c-.3.3-1.2.4-1.9.1-.8-.3-.5-.6.6-.6 1.1-.1 1.7.2 1.3.5zm-87.7.8c0 .2-.9.6-2 .9-1.1.3-1.8.1-1.4-.4.5-.9 3.4-1.3 3.4-.5zm92.7.2c-.3.3-1.2.4-1.9.1-.8-.3-.5-.6.6-.6 1.1-.1 1.7.2 1.3.5zm-97.7.8c0 .2-.7.7-1.6 1-.8.3-1.2.2-.9-.4.6-1 2.5-1.4 2.5-.6zm101.7.2c-.3.3-1.2.4-1.9.1-.8-.3-.5-.6.6-.6 1.1-.1 1.7.2 1.3.5zm4 1c-.3.3-1.2.4-1.9.1-.8-.3-.5-.6.6-.6 1.1-.1 1.7.2 1.3.5zm-112 1c-.3.3-1.2.4-1.9.1-.8-.3-.5-.6.6-.6 1.1-.1 1.7.2 1.3.5zm116 0c-.3.3-1.2.4-1.9.1-.8-.3-.5-.6.6-.6 1.1-.1 1.7.2 1.3.5zm5.3 1.4c.9.6 1 1 .3 1-1.2 0-3.7 6.3-3.1 8 .2.6 5.1 3 10.9 5.4 11.4 4.6 24.2 11.3 35 18.2l6.7 4.3 2.6-3.7c2-2.9 2.3-3.9 1.3-5.1-1-1.2-.9-1.2.9-.1 2 1.2 1.1 2.7-23.8 36.8-14.3 19.5-39 53.5-55 75.6-16 22-29.3 40.3-29.5 40.5-.6.7-5.3-2.2-5.3-3.3 0-.6 7-22.6 15.6-49.1 8.6-26.4 15.7-48.7 15.9-49.5.2-.8 1-3.4 1.9-5.8.8-2.3 1.6-4.6 1.7-5 .1-.4.3-1.2.5-1.7.2-.6 4.4-13.4 9.3-28.5 7.5-23.3 8.6-27.6 7.3-28.1-1.3-.5-1.3-.7.4-1.1 2.5-.6 5-7.8 3.1-9-.9-.6-.8-.8.3-.8.8 0 2.2.5 3 1zm-46.2 1.7c-1 .2-2.6.2-3.5 0-1-.3-.2-.5 1.7-.5s2.7.2 1.8.5zm9 1c-1 .2-2.6.2-3.5 0-1-.3-.2-.5 1.7-.5s2.7.2 1.8.5zm5.9.9c-.3.3-1.2.4-1.9.1-.8-.3-.5-.6.6-.6 1.1-.1 1.7.2 1.3.5zm5.6 1.1c-.7.2-1.9.2-2.5 0-.7-.3-.2-.5 1.2-.5s1.9.2 1.3.5zm5 1c-.7.2-1.9.2-2.5 0-.7-.3-.2-.5 1.2-.5s1.9.2 1.3.5zm4.4.9c-.3.3-1.2.4-1.9.1-.8-.3-.5-.6.6-.6 1.1-.1 1.7.2 1.3.5zm37.8 3.2c-.3.3-1.1 0-1.8-.7-.9-1-.8-1.1.6-.5 1 .3 1.5.9 1.2 1.2zm12 6c-.3.3-1.1 0-1.8-.7-.9-1-.8-1.1.6-.5 1 .3 1.5.9 1.2 1.2zm-215.7 18c3.7 5.2 19.5 27.1 70.3 97.2 19 26.1 34.8 48.1 35.3 48.8 1 1.6-2.2 5.5-3.9 4.8-.7-.2-22.7-16.1-49.1-35.2-69.2-50.2-92.3-66.9-97.6-70.6-2.6-1.8-4.7-3.6-4.8-3.9 0-.4.8-1.3 1.8-2 1.5-1.2 1.6-1.2.4.2-1 1.4-.6 2 2.7 4.2l3.9 2.6 6-7.2c7-8.4 22.3-23.6 30.4-30.2l5.7-4.7-2.6-3.9c-2.2-3.3-2.8-3.7-4.2-2.7-1.4 1.2-1.4 1.1-.2-.5.7-.9 1.6-1.7 2-1.7.3.1 2.1 2.2 3.9 4.8zm-8.8-.5c0 .2-1 1.2-2.2 2.3l-2.3 1.9 1.9-2.3c1.8-2.1 2.6-2.7 2.6-1.9zm-9 8.2c-2.4 2.5-4.6 4.5-4.9 4.5-.3 0 1.5-2 3.9-4.5s4.6-4.5 4.9-4.5c.3 0-1.5 2-3.9 4.5zm-10 9c-2.4 2.5-4.6 4.5-4.9 4.5-.3 0 1.5-2 3.9-4.5s4.6-4.5 4.9-4.5c.3 0-1.5 2-3.9 4.5zm295 4.2c0 .8-.9 0-5-4.5l-4.5-4.7 4.8 4.5c2.6 2.4 4.7 4.5 4.7 4.7zm-11 3.8c3 3 5.2 5.5 4.9 5.5-.2 0-2.9-2.5-5.9-5.5-3-3-5.2-5.5-4.9-5.5.2 0 2.9 2.5 5.9 5.5zm-292 .8c0 .2-1.5 1.6-3.2 3.3l-3.3 2.9 2.9-3.3c2.8-3 3.6-3.7 3.6-2.9zm158.7 3.3c-.3.3-1.2.4-1.9.1-.8-.3-.5-.6.6-.6 1.1-.1 1.7.2 1.3.5zM139 222.5c2.8 1.4 5 2.1 5 1.5 0-.5.5-1 1-1 .6 0 1 .5 1 1.2s1.2 2.3 2.8 3.6c2.2 1.9 2.3 2.3.7 1.9-1.1-.3-2.7-.8-3.5-1.1-1.2-.5-2.3.5-3.9 3.4-1.8 3.3-2.6 3.9-3.7 3-.7-.7-1.6-2-1.9-3.1-.4-1-1-1.9-1.4-1.9-.6 0-4.1 6.3-4.1 7.5 0 .2 2 1.6 4.5 3.1 3.4 2 4.9 2.3 5.9 1.5 2.1-1.8 2.6-.1.9 3.5-1.8 3.6-3.7 4.6-3.1 1.6.3-1.2-1.1-2.5-4.5-4.4-2.7-1.5-5.3-2.5-5.7-2.3-.5.3-1.1-.1-1.4-.7-.4-.7-.4-.3-.2.9.5 2.9-2 2-2.8-1-1-3.7-.7-5 .9-4.3.8.3 2.2.9 3 1.2 1 .4 2.1-.8 3.7-4 2.1-4.4 2.1-4.7.6-8-2.6-5.3-1.2-5.8 6.2-2.1zm51-1.1c0 .2-.8 1-1.7 1.7-1.6 1.3-1.7 1.2-.4-.4 1.3-1.6 2.1-2.1 2.1-1.3zm373 2.6c.6 1.1.8 2 .6 2-.3 0-1-.9-1.6-2-.6-1.1-.8-2-.6-2 .3 0 1 .9 1.6 2zm4.5 8c1 2.2 2.4 4 3.2 4 .8 0 2.3.5 3.4 1 1.9 1 1.9 1.2.2 3.4-1 1.3-2.1 2.2-2.5 2-1.5-.9-6.7 2.6-6.2 4.1.7 1.7-1.1 2.1-2.1.5-.4-.7-1.2-.7-2.5 0-1 .5-2.3 1-2.9 1-2 0-1.1-1.7 1.4-2.8 2.1-1 2.4-1.5 1.5-3.1-.5-1.1-1.5-3.2-2-4.7l-1.1-2.7 5.1.6c2.7.3 5 .4 5 .1 0-.3-.9-2.3-2.1-4.5-1.1-2.3-1.6-3.9-1.1-3.6.4.4 1.7 2.4 2.7 4.7zm-48.6 0l2.3 3.5-2.4-2.7-2.4-2.8-3.6 2.6-3.7 2.6 3.6 5.7c8.7 13.5 22.3 40.8 22.3 44.9 0 2 2.6 2.5 6.5 1.2 3-1 3.5-1.5 3-3.3-.5-1.9-.4-1.9.9.3 1.6 2.7 2.3 6.7.7 4.2-.6-1-8.4 1.2-34.8 9.7-18.6 6.1-34.2 11.1-34.5 11.1-.2 0-1.1-1.9-1.8-4.3-2.7-9.2-15.1-31.7-17.4-31.7-.6.1-2.3 1.1-3.9 2.3l-2.7 2.3 5 8.5c2.7 4.6 6.4 11.8 8.1 15.9 1.7 4.1 3.5 8 4 8.6.5.7-15.6 6.4-49 17.2-27.5 8.9-50.3 16.2-50.8 16.2-1 0-3.9-4.8-3.2-5.3.2-.2 22.5-16.4 49.4-36 27-19.5 60.9-44.3 75.5-54.9 14.6-10.7 26.5-19.4 26.6-19.4 0 .1 1.1 1.7 2.3 3.6zm6.1 9c.6 1.1.8 2 .6 2-.3 0-1-.9-1.6-2-.6-1.1-.8-2-.6-2 .3 0 1 .9 1.6 2zm-399.9 7.7c-1.1 2.1-2 3.5-2.1 3.1 0-1.2 3.3-7.8 3.8-7.4.2.2-.6 2.1-1.7 4.3zm451.8 2.8c0 .5-.8-.6-1.9-2.5-1.1-1.9-1.9-4-1.9-4.5 0-.6.8.6 1.9 2.5 1.1 1.9 1.9 3.9 1.9 4.5zm-47.4-2.5c.9 1.6 1.3 3 1.1 3-.3 0-1.2-1.4-2.1-3-.9-1.7-1.3-3-1.1-3 .3 0 1.2 1.3 2.1 3zm-411.4 16.7c-1.2 2-1.4 1.4-.5-1.2.4-.9.9-1.4 1.1-1.1.3.2 0 1.3-.6 2.3zm464.9.8c0 .5-.5.3-1-.5s-1-2-1-2.5c0-.6.5-.3 1 .5s1 1.9 1 2.5zm-44.1 1.5c1.1 2.4 1.1 2.4-.3.6-.9-1.1-1.6-2.4-1.6-3 0-1.2.5-.7 1.9 2.4zm-425.2 11.2c-.3.8-.6.5-.6-.6-.1-1.1.2-1.7.5-1.3.3.3.4 1.2.1 1.9zm473 0c-.3.8-.6.5-.6-.6-.1-1.1.2-1.7.5-1.3.3.3.4 1.2.1 1.9zm-475 7c-.3.8-.6.5-.6-.6-.1-1.1.2-1.7.5-1.3.3.3.4 1.2.1 1.9zm477 0c-.3.8-.6.5-.6-.6-.1-1.1.2-1.7.5-1.3.3.3.4 1.2.1 1.9zM159 287.5c2.3.8 4.6 1.3 5 1 .5-.3 1-.1 1.2.3.1.5 14.7 5.7 32.3 11.5 17.6 5.8 30.6 10.4 28.8 10.1-2.8-.5-3.2-.2-4.2 2.8-2 6.3-4.2 18.2-4.8 27l-.6 8.8h9l1.2-10.9c.6-6 2-14.2 3-18.2 1.4-5.5 1.6-7.6.7-8.2-1.9-1.4 1.2-.5 46.4 14.2 23.9 7.8 46.2 15.1 49.6 16.2 5.8 1.9 6 2.1 5.6 4.9l-.4 3H155l-.1 2.2-.2 2.3-.4-2.3c-.4-1.9-1.1-2.2-5.4-2.2-4.5 0-4.9-.2-4.8-2.3.1-1.6.2-1.8.6-.5.3 1.4 1.5 1.8 4.7 1.8h4.3l.7-10.3c.9-12.1 3.8-30.4 6.6-40.3 1.1-3.8 2-7.3 2-7.6 0-.3-2-1.3-4.4-2.1-3.3-1.1-4.6-1.2-5-.4-.2.7-.5.4-.5-.6-.1-2.1.5-2.1 5.9-.2zm-48.3 2.7c-.3.8-.6.5-.6-.6-.1-1.1.2-1.7.5-1.3.3.3.4 1.2.1 1.9zm479 0c-.3.8-.6.5-.6-.6-.1-1.1.2-1.7.5-1.3.3.3.4 1.2.1 1.9zm-480 4c-.3.8-.6.5-.6-.6-.1-1.1.2-1.7.5-1.3.3.3.4 1.2.1 1.9zm481 0c-.3.8-.6.5-.6-.6-.1-1.1.2-1.7.5-1.3.3.3.4 1.2.1 1.9zm-476.1 5.4c2.9.4 5 .2 5.7-.5 1.9-1.9 2.7-1.2 2 2.1-.6 3.7-2.3 6.2-2.3 3.6 0-2.2-.5-2.4-6.7-3.3-5.1-.7-5.3-.6-5.4 1.7-.1 2-.2 1.9-.9-.7-.4-1.7-.8-2.2-.9-1.3 0 1-.4 1.8-.7 1.8-1 0-3.3-3.3-3.4-4.8 0-1 .8-1.2 3-.7s3 .3 3-.7c.1-.8.4-.7 1 .4.6 1 2.9 2 5.6 2.4zm477.1-1.4c-.3.8-.6.5-.6-.6-.1-1.1.2-1.7.5-1.3.3.3.4 1.2.1 1.9zm-441.4 4.3c-.3.9-.8 1.4-1 1.1-.3-.3-.2-.9.2-1.5.9-1.6 1.5-1.3.8.4zm445.6 4.2c3.5 3 2 3.9-7.6 4.8-5 .5-7.6 1.2-8 2.1-.9 2.3-2 1.6-2.7-1.8-.7-3.4 0-5 1.3-3 .6 1 2.5 1.1 7.3.6l6.6-.7-.4-4.1c-.2-2.2-.1-3.2.2-2.1.3 1.1 1.8 3 3.3 4.2zM112.3 312c4.4.9 5.3.9 6.3-.5 1.6-2.1 2.3-.8 1.7 3.2-.5 3.2-2.3 4.7-2.3 1.9 0-.8-1.5-1.7-3.7-2.1-2.1-.3-4.8-.9-6-1.2-1.9-.4-2.3-.1-2.4 1.8l-.1 2.4-.8-2.5c-.7-2.1-.8-2.2-.9-.5-.2 1.9-.3 1.9-2.1-.4-2.7-3.2-2.5-4.1 1-4.1 2.4 0 3-.4 3.1-2.3.2-1.8.3-1.8.6.5.4 2.3 1.1 2.8 5.6 3.8zm482.4 3.7c-.3 1-.5.4-.5-1.2 0-1.7.2-2.4.5-1.8.2.7.2 2.1 0 3zm-448 4.5c-.3.8-.6.5-.6-.6-.1-1.1.2-1.7.5-1.3.3.3.4 1.2.1 1.9zm407 0c-.3.8-.6.5-.6-.6-.1-1.1.2-1.7.5-1.3.3.3.4 1.2.1 1.9zm45.7 1.1c.8 2.1.6 3.5-.7 6-.9 1.8-1.8 5.9-2 9.2l-.3 6-.2-6.5c-.2-5.8-.5-6.6-2.6-7.6-2-.9-2.7-.8-4 .7-.9 1.1-2.7 1.9-4.1 1.9-5.1 0-8.6-7-5-10 2-1.7 3.2-.5 1.5 1.5-1.9 2.3.3 6.7 3.2 6.3 2.1-.3 3.1-1.5 4.3-5.3.6-1.8.7-1.7 2.8.9 3.4 4.3 7 2.1 5-3.1-.6-1.5-.9-1.3-1.4 1.2-.6 2.9-.7 2.9-.8-.8-.1-3.1.2-3.8 1.6-3.5 1 .2 2.2 1.6 2.7 3.1zm-494.7 2.4c-.3 1-.5.4-.5-1.2 0-1.7.2-2.4.5-1.8.2.7.2 2.1 0 3zm439 1.5c-.3.8-.6.5-.6-.6-.1-1.1.2-1.7.5-1.3.3.3.4 1.2.1 1.9zm-398 3c-.3.8-.6.5-.6-.6-.1-1.1.2-1.7.5-1.3.3.3.4 1.2.1 1.9zm409 0c-.3.8-.6.5-.6-.6-.1-1.1.2-1.7.5-1.3.3.3.4 1.2.1 1.9zm-451 11c-.2 1.8-.4.4-.4-3.2s.2-5 .4-3.3c.2 1.8.2 4.8 0 6.5zm441-6c-.3.8-.6.5-.6-.6-.1-1.1.2-1.7.5-1.3.3.3.4 1.2.1 1.9zm-400 7c-.2 1.3-.4.5-.4-1.7-.1-2.2.1-3.2.4-2.3.2 1 .2 2.8 0 4zm411-1.5c-.3 1-.5.4-.5-1.2 0-1.7.2-2.4.5-1.8.2.7.2 2.1 0 3zM357.4 343c4.1 4 4.1 10-.2 14.2-2.4 2.5-3.9 3.1-7.2 3.1-9.1 0-13.8-10.7-7.5-17.3 4.5-4.7 10-4.7 14.9 0zm193.7 7c4.5 0 4.9.2 4.8 2.2-.1 1.7-.2 1.9-.6.5-.3-1.3-1.5-1.7-4.7-1.7h-4.3l-.7 10.2c-.9 12.2-3.8 30.5-6.6 40.4-1.1 3.8-2 7.3-2 7.6 0 .3 2 1.3 4.4 2.1 3.3 1.1 4.6 1.2 5 .4.2-.7.5-.4.5.5.1 2.2-.5 2.2-5.9.3-2.3-.8-4.6-1.3-5-1-.5.3-1 .1-1.2-.3-.1-.5-14.7-5.7-32.3-11.5-17.6-5.8-30.6-10.4-28.8-10.1 2.8.5 3.2.2 4.2-2.8 2-6.3 4.2-18.2 4.8-27l.6-8.8h-9l-1.2 10.9c-.6 6-2 14.2-3 18.2-1.4 5.5-1.6 7.6-.7 8.2 1.9 1.4-1.2.5-46.4-14.2-23.9-7.8-46.2-15.1-49.6-16.2-5.8-1.9-6-2.1-5.6-4.9l.4-3H545l.1-2.3.2-2.2.4 2.2c.4 2 1.1 2.3 5.4 2.3zM334 358.5c.7 1.4 1.1 2.6.9 2.8-.2.2-18.5 13.5-40.5 29.5-22.1 16-56.1 40.7-75.6 55l-35.5 25.9-2.2-3.6-2.2-3.6 2.3 2.7 2.4 2.8 3.6-2.6 3.7-2.6-3.6-5.7c-8.7-13.5-22.3-40.8-22.3-44.9 0-2-2.6-2.5-6.5-1.2-3 1-3.5 1.5-3 3.3.5 1.9.4 1.9-.9-.3-1.6-2.7-2.3-6.7-.7-4.2.6 1 8.4-1.2 34.8-9.7 18.6-6.1 34.2-11.1 34.5-11.1.2 0 1.1 1.9 1.8 4.2 2.7 9.3 15.1 31.8 17.4 31.8.6-.1 2.3-1.1 3.9-2.3l2.7-2.3-5-8.5c-2.7-4.6-6.4-11.8-8.1-15.9-1.7-4.1-3.5-8-4-8.6-.5-.7 15.4-6.3 48.4-17.1 27.1-8.9 49.9-16.1 50.8-16.2.9-.1 2.2 1 2.9 2.4zm-230.3 8.7c-.2 1.8-.4.4-.4-3.2s.2-5 .4-3.3c.2 1.8.2 4.8 0 6.5zm452-4c-.2 1.3-.4.5-.4-1.7-.1-2.2.1-3.2.4-2.3.2 1 .2 2.8 0 4zm41 4c-.2 1.8-.4.4-.4-3.2s.2-5 .4-3.3c.2 1.8.2 4.8 0 6.5zm-452-3.5c-.3 1-.5.4-.5-1.2 0-1.7.2-2.4.5-1.8.2.7.2 2.1 0 3zm269.9 32.9c69.2 50.2 92.3 66.9 97.6 70.6 2.6 1.8 4.7 3.6 4.8 3.9 0 .4-.8 1.3-1.7 2-1.6 1.2-1.7 1.2-.5-.2 1-1.4.6-2-2.7-4.2l-3.9-2.6-4.7 5.7c-6.6 8.1-21.8 23.4-30.2 30.4l-7.2 6 2.6 3.9c2.2 3.3 2.8 3.7 4.2 2.7 1.4-1.2 1.4-1.1.3.4-.8.9-1.1 2.2-.7 2.8.3.5.4 1 .2 1-.3 0-2.3-2.6-4.6-5.8-10.2-14-39.5-54.4-71.2-98.2-19-26.1-34.8-48.1-35.3-48.8-1-1.6 2.2-5.5 3.9-4.8.7.2 22.7 16.1 49.1 35.2zm-72.2-30.1c1.9 1.5 1.5 3-14.4 52-11.1 34.1-16.7 50.2-17.4 49.6-.6-.5-4.5-2.3-8.6-4-4.1-1.7-11.3-5.4-15.9-8.1l-8.5-5-2.3 2.7c-1.2 1.6-2.2 3.3-2.3 3.9 0 2.3 22.5 14.7 31.8 17.4 2.3.7 4.2 1.6 4.2 1.8 0 .3-5 15.8-11 34.4-6.1 18.7-10.8 34.3-10.5 34.9.8 1.2-.6 1.1-2.5-.1-.9-.6-1-1-.3-1 1.2 0 3.7-6.3 3.1-8-.2-.6-5.1-3-10.9-5.4-11.4-4.6-24.2-11.3-35-18.2l-6.7-4.3-2.6 3.7c-2.1 2.9-2.3 3.9-1.3 5.1 1 1.4 1 1.4-.4.4-1.2-1-1.8-1-2.9 0-2.4 2.2-.2-.9 26.6-37.6 14.6-19.9 39.4-54.1 55.2-75.9 15.8-21.8 29.2-39.7 29.7-39.7.6 0 1.9.6 2.9 1.4zm-186.7 1.7c-.3.8-.6.5-.6-.6-.1-1.1.2-1.7.5-1.3.3.3.4 1.2.1 1.9zm216.4 48.9c16.8 51.4 17.6 54.2 16.2 52.3-.6-.9-2.7-.7-8.2.7-4 1-12.2 2.4-18.2 3l-10.9 1.2v9l8.8-.6c8.8-.6 20.7-2.8 27-4.8 3-1 3.3-1.4 2.8-4.2-.3-1.8 4.3 11.2 10.1 28.8s11 32.2 11.5 32.3c.4.2.6.7.3 1.2-.3.4.2 2.7 1 5 1.9 5.4 1.9 6-.2 5.9-1 0-1.3-.3-.6-.5.8-.4.7-1.7-.4-5-.8-2.4-1.7-4.4-1.9-4.4-.2 0-4.6 1.1-9.8 2.4-10.9 2.9-26.5 5.3-39.5 6.3l-9.1.6v4.8c0 2.7-.3 4.9-.7 4.9-.5 0-.6-2.2-.5-5 .4-4.6.2-5-2-5.1-2.3-.2-2.3-.2 0-.6l2.2-.4V368.1l2.8-.3c1.5-.2 2.8-.3 2.9-.2.2 0 7.5 22.3 16.4 49.5zm-226.4-43.9c-.3.8-.6.5-.6-.6-.1-1.1.2-1.7.5-1.3.3.3.4 1.2.1 1.9zm409 0c-.3.8-.6.5-.6-.6-.1-1.1.2-1.7.5-1.3.3.3.4 1.2.1 1.9zm-398 3c-.3.8-.6.5-.6-.6-.1-1.1.2-1.7.5-1.3.3.3.4 1.2.1 1.9zm-52 2.5c-.3 1-.5.4-.5-1.2 0-1.7.2-2.4.5-1.8.2.7.2 2.1 0 3zm491 0c-.3 1-.5.4-.5-1.2 0-1.7.2-2.4.5-1.8.2.7.2 2.1 0 3zM119 381c2.4 2.4 2.7 8.2.5 10-.8.7-3.1 1-5.2.8-2.2-.3-4.7.1-5.8.8-2.7 1.8-6.6-.2-7.9-3.9-.8-2.3-.6-3.1 1.2-4.9 1.8-1.8 2.6-2 4.9-1.2 2.2.7 3.1.5 5-1.3 2.7-2.8 4.7-2.9 7.3-.3zm27.7.2c-.3.8-.6.5-.6-.6-.1-1.1.2-1.7.5-1.3.3.3.4 1.2.1 1.9zm407 0c-.3.8-.6.5-.6-.6-.1-1.1.2-1.7.5-1.3.3.3.4 1.2.1 1.9zm38.1 1.4c1.2.8 2.2 1.1 2.2.7 0-.4.9 1 2 3.2 2.7 5.3 1.6 5.8-2.5 1l-3.4-4-.1 3.2c0 4-2.3 6.3-6.1 6.3-6.1 0-9.4-8.1-4.6-11.5 2.5-1.9 8.8-1.3 12.5 1.1zm1.9 10.6c-.3.7-.5.2-.5-1.2s.2-1.9.5-1.3c.2.7.2 1.9 0 2.5zm-486 5c-.3.7-.5.2-.5-1.2s.2-1.9.5-1.3c.2.7.2 1.9 0 2.5zm485 0c-.3.7-.5.2-.5-1.2s.2-1.9.5-1.3c.2.7.2 1.9 0 2.5zm-42.6.1c-1 .9-1.1.8-.5-.6.3-1 .9-1.5 1.2-1.2.3.3 0 1.1-.7 1.8zm-441.4 4.9c-.3.8-.6.5-.6-.6-.1-1.1.2-1.7.5-1.3.3.3.4 1.2.1 1.9zm483 0c-.3.8-.6.5-.6-.6-.1-1.1.2-1.7.5-1.3.3.3.4 1.2.1 1.9zm-482 4c-.3.8-.6.5-.6-.6-.1-1.1.2-1.7.5-1.3.3.3.4 1.2.1 1.9zm481 0c-.3.8-.6.5-.6-.6-.1-1.1.2-1.7.5-1.3.3.3.4 1.2.1 1.9zm-480 4c-.3.8-.6.5-.6-.6-.1-1.1.2-1.7.5-1.3.3.3.4 1.2.1 1.9zm479 0c-.3.8-.6.5-.6-.6-.1-1.1.2-1.7.5-1.3.3.3.4 1.2.1 1.9zm-478 4c-.3.8-.6.5-.6-.6-.1-1.1.2-1.7.5-1.3.3.3.4 1.2.1 1.9zm477 0c-.3.8-.6.5-.6-.6-.1-1.1.2-1.7.5-1.3.3.3.4 1.2.1 1.9zm-475 7c-.3.8-.6.5-.6-.6-.1-1.1.2-1.7.5-1.3.3.3.4 1.2.1 1.9zm473 0c-.3.8-.6.5-.6-.6-.1-1.1.2-1.7.5-1.3.3.3.4 1.2.1 1.9zM163 434.4c0 1.2-.5.7-1.9-2.4-1.1-2.4-1.1-2.4.3-.6.9 1.1 1.6 2.4 1.6 3zm-44 2.1c0 .5-.5.3-1-.5s-1-2-1-2.5c0-.6.5-.3 1 .5s1 1.9 1 2.5zm463.1-.8c-1.2 2-1.4 1.4-.5-1.2.4-.9.9-1.4 1.1-1.1.3.2 0 1.3-.6 2.3zm-445.6 5.8c1.4 1.3 2.5 3 2.5 3.8 0 2.7-4.1 6.6-7.6 7.3-2 .4-3.8 1.3-4.1 2.1-.5 1.3-.7 1.3-1.4 0-.5-.8-2.5-1.8-4.4-2.1-1.9-.4-3.5-1.2-3.5-1.8 0-.6 1.1-.8 3-.5 2.4.5 2.8.4 2.3-1.1-.3-1.1.1-.9 1.1.6 1 1.2 2.2 2 2.7 1.7.5-.4.3-1.3-.6-2.1-2.7-2.8-1.8-7 2-9.2 3.1-1.8 5.4-1.4 8 1.3zm35 9.5c.9 1.6 1.3 3 1.1 3-.3 0-1.2-1.4-2.1-3-.9-1.7-1.3-3-1.1-3 .3 0 1.2 1.3 2.1 3zm403.6 1.7c-1.1 2.1-2 3.5-2.1 3.1 0-1.2 3.3-7.8 3.8-7.4.2.2-.6 2.1-1.7 4.3zm-10.1 4.1c4.6 2.5 6 2.9 6 1.7 0-.8.4-1.5.9-1.5 1.1 0 2.1 2.5 2.1 5.1 0 1.6-.5 1.9-1.9 1.4-1.5-.4-2.4.1-3.6 2.2-.9 1.5-1.3 1.9-1 .8.4-1.1.9-2.7 1.2-3.5.5-2-9-7.4-11.7-6.5-2.5.8-2.6-1.2-.2-4.5 1.6-2.3 1.7-2.4 2-.5.2 1.3 2.5 3.2 6.2 5.3zm-421.5-.7c1.6 3.1 1.2 5.6-.5 2.9-.7-1.2-1.5-1.1-4.8.4-4.3 1.9-10.7 6.1-8.1 5.3 1.1-.4 2.2.8 3.8 4 1.2 2.4 1.7 4.2 1.3 3.9-.5-.3-1.5-1.8-2.1-3.3-.8-2-1.9-2.8-3.7-3-4-.2-5.2-2-2.6-3.9 1.3-.9 1.9-2 1.5-2.7-.5-.9-.3-.9.8-.1 1.9 1.6 12-3.1 11.2-5.2-1-2.8 1.7-1.3 3.2 1.7zM176 459c.6 1.1.8 2 .6 2-.3 0-1-.9-1.6-2-.6-1.1-.8-2-.6-2 .3 0 1 .9 1.6 2zm386.5 5.6c7 3.3 8 12.7 1.6 14-2.3.5-4.1 2.4-8.4 8.9-6 8.9-19.9 26.5-24.1 30.4-1.4 1.4-2.6 3.2-2.6 4.2 0 3.4-1.1 4.9-3.4 4.3-2.9-.7-6.8 3.2-4.6 4.6 1.2.7.6 1.8-3 5.5-2.5 2.5-4.6 4.1-4.9 3.4-.2-.6 1.2-2.6 3-4.5 5.5-5.7 2.4-3.8-7.8 4.6-8.4 7-23.4 17.9-28.3 20.5-3.4 1.8.9-1.5 8.3-6.4 7.8-5.2 27.1-20.4 28.2-22.1.4-.6.3-1.5-.1-2.2-.5-.7-1-.4-1.5 1-2.2 5.8-9.9 5-12.4-1.3-2.3-5.3.7-10.5 5.9-10.5 2.5 0 1.9 1.7-.9 2.4-4.7 1.2-4.3 9.6.5 11.1 2.8.9 5-1.1 5-4.6 0-3.9 1.5-4.4 3.9-1.3l2.1 2.7 2.5-2.3 2.4-2.3-4.1-4.8c-3-3.6-4.6-4.8-6-4.3-2.3.7-2.4-1.3-.1-3.8 1.9-2.1 5.2-2.6 3.5-.6-.7 1 .3 2.7 3.7 6.6l4.8 5.2 5.4-5.7c7.4-7.9 15.5-18 22.8-28.8l6.1-8.9-4.5-2.3c-5.3-2.8-7.9-7-6.6-10.7 1.9-4.8 6.3-5.5 13.6-2zM138 476c.6 1.1.8 2 .6 2-.3 0-1-.9-1.6-2-.6-1.1-.8-2-.6-2 .3 0 1 .9 1.6 2zm375 .4c0 .2-.8 1-1.7 1.7-1.6 1.3-1.7 1.2-.4-.4 1.3-1.6 2.1-2.1 2.1-1.3zm-367.1 11.9c5.7 8.4 19.4 25.8 23.4 29.5l2.4 2.3 6.4-2.5c3.5-1.3 7.2-2.7 8.2-3.1 1-.4 1.7-.3 1.7.4 0 1.2-10.2 6.1-12.6 6.1-2.5 0-1.5 1.6 5.9 8.7 8.4 8.1 20 17.4 30.4 24.5l7.4 4.9 3.7-4.2c3.3-3.6 4.4-4.2 9-4.7 3.5-.3 5.2-.1 5.2.7 0 .6-1.3 1.1-3 1.1-3.2 0-8 1.9-8 3.2 0 .4.8.8 1.8.8 3.2 0 5.5 3.5 4.8 7.3-.5 2.9-.3 3.5 1.8 4.5 2.7 1.2 3.3.6 7-6.7 1.5-2.7 1.5-3.5.5-4.2-2.9-1.8.4-2.1 3.9-.4 3.2 1.7 3.4 1.9 1.5 2.3-1.4.2-3.3 2.2-5.2 5.7-1.7 3-3.1 5.6-3.1 5.9 0 .2 1 .7 2.3 1 2.1.7 2.1.7.2 1.6-1.1.5-3 .9-4.3.9-1.9.1-2.1-.3-1.7-2.2.8-3.1-3.2-5.1-7.1-3.7-3.7 1.5-7.6-.7-8.8-4.8-.7-2.6-2.6-4.5-8.3-8.3-10.2-6.9-25.6-19.5-32.8-26.8-3.3-3.4-6.6-6.1-7.4-6.1-.9 0-.1 1.4 2.2 3.8 2 2.1 3.7 4.1 3.7 4.5 0 1.9-2.9 0-6.9-4.4-4.2-4.6-4.3-5-2.4-5.5s1.4-1.5-5.3-9.2c-7.1-8.3-17.1-21.7-21.6-29.2-3.6-5.9-.4-2 5.1 6.3zm363.1-7c0 .2-1.5 1.6-3.2 3.3l-3.3 2.9 2.9-3.3c2.8-3 3.6-3.7 3.6-2.9zm-297 6.2c3 3 5.2 5.5 4.9 5.5-.2 0-2.9-2.5-5.9-5.5-3-3-5.2-5.5-4.9-5.5.2 0 2.9 2.5 5.9 5.5zm-3 12.2c0 .8-.9 0-5-4.5l-4.5-4.7 4.8 4.5c2.6 2.4 4.7 4.5 4.7 4.7zm287-4.2c-2.4 2.5-4.6 4.5-4.9 4.5-.3 0 1.5-2 3.9-4.5s4.6-4.5 4.9-4.5c.3 0-1.5 2-3.9 4.5zm-10 9c-2.4 2.5-4.6 4.5-4.9 4.5-.3 0 1.5-2 3.9-4.5s4.6-4.5 4.9-4.5c.3 0-1.5 2-3.9 4.5zm-6 4.8c0 .2-1 1.2-2.2 2.3l-2.3 1.9 1.9-2.3c1.8-2.1 2.6-2.7 2.6-1.9zM253.5 531c.3.6-.1.7-.9.4-1.8-.7-2.1-1.4-.7-1.4.6 0 1.3.4 1.6 1zm12 6c.3.6-.1.7-.9.4-1.8-.7-2.1-1.4-.7-1.4.6 0 1.3.4 1.6 1zm68.2 7.6c-.3.3-1.2.4-1.9.1-.8-.3-.5-.6.6-.6 1.1-.1 1.7.2 1.3.5zm75 3c-.3.3-1.2.4-1.9.1-.8-.3-.5-.6.6-.6 1.1-.1 1.7.2 1.3.5zm-6.2 1.4c-.3.5-1.2 1-1.8 1-.7 0-.6-.4.3-1 1.9-1.2 2.3-1.2 1.5 0zm-4 1c-.3.5-1.4 1-2.3.9-1.4 0-1.3-.2.3-.9 2.7-1.1 2.7-1.1 2 0zm-16.8 3.6c-.3.3-1.2.4-1.9.1-.8-.3-.5-.6.6-.6 1.1-.1 1.7.2 1.3.5zm-8 1c-.3.3-1.2.4-1.9.1-.8-.3-.5-.6.6-.6 1.1-.1 1.7.2 1.3.5zm86.7 1c1.1 2.8.7 5.2-1.6 9.9-2 4.1-2.1 4.7-.6 6.1 1.3 1.3 2 1.4 3.7.4 1.2-.6 1.9-1.5 1.6-1.9-.6-1.1.9-2.2 5.8-4.4 4.7-2.1 4.8-1.5.2 1.2-1.9 1.1-3.5 2.7-3.5 3.5 0 2.5-4.5 4.9-7.9 4.1-1.9-.4-4.1-.1-6.1 1-1.8.9-3.4 1.5-3.6 1.2-.2-.2 1.3-1.2 3.5-2.1 3-1.4 3.7-2.2 3.3-3.8-.2-1.1.6-4.1 1.8-6.8 1.2-2.7 2-5.6 1.7-6.4-.6-1.4-1-1.4-3.9.4-3.4 2-5.8 2.6-5.8 1.2 0-1 7.1-5 9.1-5.1.9-.1 2 .6 2.3 1.5zm-121.1.1c-.7.2-2.1.2-3 0-1-.3-.4-.5 1.2-.5 1.7 0 2.4.2 1.8.5zm24.5 0c-1 .2-2.8.2-4 0-1.3-.2-.5-.4 1.7-.4 2.2-.1 3.2.1 2.3.4zm114.2 5.8c0 .2-1 .9-2.2 1.5-2.2 1.1-2.2 1-.4-.4 2.1-1.7 2.6-1.9 2.6-1.1zM249 575c1.9 1.1 3.1 1.9 2.5 1.9-.5 0-2.6-.8-4.5-1.9-1.9-1.1-3-1.9-2.5-1.9.6 0 2.6.8 4.5 1.9zm67.7 4.2c1.5 1.2 1.7 3.8.3 3.8-.5 0-1-.5-1-1 0-1.6-4.3-2.9-6.2-1.8-2.6 1.3-2.2 4.3.7 6.6 3.2 2.5 3.1 3-.2 3.4-3 .3-4.4 2.8-1.6 2.9 1.7 0 1.7.1-.1.8-1.8.7-1.8.8-.2 1.4 2.6 1 4.8.8 4.1-.3-.4-.6.5-1 2.1-1h2.7l-2.3 2c-3.1 2.7-6.6 2.5-9.3-.3-1.2-1.3-2.9-2.7-3.7-3-1.2-.4-1.1-.6.3-.6 2.2-.1 6-3.8 4.7-4.6-.6-.4-1-2.1-1-4 0-5.6 6.2-8.1 10.7-4.3zm74.3-1.3c0 .5-.7 1.1-1.5 1.5-1 .3-1.3 1.5-1 3.3.2 1.5.7 4.5 1 6.5.5 3 1 3.8 2.7 3.8 2.1 0 2.1 0-.2 2.5-2.7 2.8-4 3.2-4 1 0-.9-1-1.6-2.7-1.6-2.4-.2-2.5-.2-.5-.6 1.9-.4 2.2-1.1 2.2-5.1 0-6.1-.9-9.2-2.6-9.2-2.6 0-1.4-1.9 1.4-2.3 4.8-.7 5.2-.7 5.2.2zm-14 1.9c0 .9-3.6 14-4.6 16.5-.6 1.6-.1 1.7 5.1 1.1 4-.5 5.6-.4 5.2.4-.4.5-3.1 1.3-6 1.7-2.8.3-6.1.9-7.1 1.2-1.5.4-1.8.1-1.3-1.6.5-1.9.1-2.1-5.1-2.3l-5.7-.1 6.5-.6 6.5-.6 1.9-7c1-3.9 2-7.6 2.2-8.3.4-1.3 2.4-1.7 2.4-.4zM266 582c.8.5 1.1 1 .5 1-.5 0-1.7-.5-2.5-1s-1-1-.5-1c.6 0 1.7.5 2.5 1zm170 0c-.8.5-1.9 1-2.5 1-.5 0-.3-.5.5-1s2-1 2.5-1c.6 0 .3.5-.5 1zm-156.3 4.6c-.3.3-1.2.4-1.9.1-.8-.3-.5-.6.6-.6 1.1-.1 1.7.2 1.3.5zm143 0c-.3.3-1.2.4-1.9.1-.8-.3-.5-.6.6-.6 1.1-.1 1.7.2 1.3.5zm-136 2c-.3.3-1.2.4-1.9.1-.8-.3-.5-.6.6-.6 1.1-.1 1.7.2 1.3.5zm129 0c-.3.3-1.2.4-1.9.1-.8-.3-.5-.6.6-.6 1.1-.1 1.7.2 1.3.5zm-125 1c-.3.3-1.2.4-1.9.1-.8-.3-.5-.6.6-.6 1.1-.1 1.7.2 1.3.5zm121 0c-.3.3-1.2.4-1.9.1-.8-.3-.5-.6.6-.6 1.1-.1 1.7.2 1.3.5zm-117 1c-.3.3-1.2.4-1.9.1-.8-.3-.5-.6.6-.6 1.1-.1 1.7.2 1.3.5zm113 0c-.3.3-1.2.4-1.9.1-.8-.3-.5-.6.6-.6 1.1-.1 1.7.2 1.3.5zm-109 1c-.3.3-1.2.4-1.9.1-.8-.3-.5-.6.6-.6 1.1-.1 1.7.2 1.3.5zm105 0c-.3.3-1.2.4-1.9.1-.8-.3-.5-.6.6-.6 1.1-.1 1.7.2 1.3.5zm-5.4 1.1c-.7.2-1.9.2-2.5 0-.7-.3-.2-.5 1.2-.5s1.9.2 1.3.5zm-74 3c-.7.2-2.1.2-3 0-1-.3-.4-.5 1.2-.5 1.7 0 2.4.2 1.8.5zm55 0c-.7.2-2.1.2-3 0-1-.3-.4-.5 1.2-.5 1.7 0 2.4.2 1.8.5zm-40 1c-1.8.2-4.8.2-6.5 0-1.8-.2-.4-.4 3.2-.4s5 .2 3.3.4z"/><path d="M402.1 106.4c-1 1.1-.8 1.5.6 1.9 1.5.4 1.4.5-.3.6-2.5.1-3.4 1.9-3.4 6.5 0 3.7 3 7.2 5.4 6.3 4-1.6 6.5-11.8 3.6-15.2-1.6-1.9-4.4-1.9-5.9-.1zm5.6 3.2c-.3.3-1.2.4-1.9.1-.8-.3-.5-.6.6-.6 1.1-.1 1.7.2 1.3.5zM172.6 172.6c-.9.8-1.6 2.1-1.6 2.8 0 1.8 3.3 4.6 5.3 4.6 2.2 0 4.9-4.3 4.1-6.4-.6-1.5-1.2-1.3-4.3 1.6-3.4 3.1-3.4 3.1-.8.2 1.5-1.6 2.7-3.3 2.7-3.7 0-1.3-3.9-.7-5.4.9zM530 182.5c-1.5 1.9.3 4.5 3.1 4.5 2.3 0 3.2-1.5 2.4-4-.7-2.4-3.7-2.6-5.5-.5zm3.5 1.5c1 1.1 1.6 2 1.3 2-.3 0-1.3-.9-2.3-2-1-1.1-1.6-2-1.3-2 .3 0 1.3.9 2.3 2zM522.5 188.6c-1.4 1.4-1.4 1.9-.2 3.8 3.1 4.6 9.1 2.1 6.9-2.9-1.3-2.9-4.3-3.3-6.7-.9zM332.3 218c-7.4 1.1-19.6 3.9-21.1 4.9-2.1 1.3.5 9.4 2.7 8.5 3.4-1.3 19-4.2 26.9-4.9l8.2-.7V217l-5.7.1c-3.2.1-8.1.5-11 .9zM391 226.4c-2 5.4-1.9 5.6 7.1 9.5 4.7 2.1 12.1 5.8 16.4 8.4l7.9 4.8 2.2-2.8c1.3-1.5 2.3-3.3 2.4-3.9 0-2.2-19.9-13.3-30.3-17-5-1.8-4.6-1.8-5.7 1zM263.1 249.4c-6.6 5.7-20.1 20.2-20.1 21.7 0 .7 5.7 4.9 6.8 4.9.4 0 3.2-2.9 6.2-6.5s8.7-9.3 12.7-12.7c4-3.5 7.3-6.6 7.3-7.1 0-1-4.2-6.7-4.9-6.7-.3 0-3.9 2.9-8 6.4zM135.3 224.3c.9.8 1.7 2 1.7 2.6 0 .7.5 2.1 1.1 3.2 1 2 1.1 2 2.4.2 2.6-3.4 2.2-4-6-7-.5-.3-.2.2.8 1zM562 238.3c0 .5.5 1.7 1 2.8 1 1.8 1.3 1.8 4 .4 4.1-2.1 3.8-3.2-1-3.7-2.2-.2-4 0-4 .5zM346 346c-1.1 1.1-2 2.9-2 4s.9 2.9 2 4 2.9 2 4 2 2.9-.9 4-2 2-2.9 2-4-.9-2.9-2-4-2.9-2-4-2-2.9.9-4 2zM444 430.5c-3 3.6-8.7 9.3-12.7 12.7-4 3.5-7.3 6.7-7.3 7.3.1.5 1.1 2.3 2.5 3.9l2.4 3 4.8-4c6.1-5 14.7-13.6 19.7-19.7l4-4.8-3-2.4c-1.6-1.4-3.4-2.4-4-2.5-.5 0-3.4 2.9-6.4 6.5zM112.2 383.2c-2.9 2.9-.3 7.2 4 6.6 1.9-.2 2.3-.9 2.3-3.8 0-3-.4-3.5-2.5-3.8-1.4-.2-3.1.3-3.8 1zM103 385.5c-1 1.2-1.1 2.1-.4 3.3 1.4 2.2 2.7 2.4 4.8.9 1.6-1.2 1.7-1.6.5-3.8l-1.4-2.4-.4 2.5-.4 2.5-.6-2.4c-.6-2.2-.7-2.2-2.1-.6zM581.3 383c-3.3 1.3-3.1 5.7.3 7.2 1.8.8 3 .9 4.2.1 2.4-1.5 2.7-5.4.6-7-2-1.5-2.1-1.5-5.1-.3zM129.1 442.7c-2 1.6-2.1 2.2-1 4.5 1.7 3.8 3.6 4.2 6.5 1.2 2.4-2.3 2.5-2.7 1.1-4.7-1.9-2.9-3.9-3.2-6.6-1zM553.2 465.1c-3.2 1.2-2.9 5.2.8 8.2 4.3 3.7 6.9 4.3 8.6 2 1.3-1.7 1.4-1.7.7.2-.6 1.8-.5 1.8 1 .6 1.7-1.4 2.4-4.7.8-3.7-.5.4-.7-.2-.4-1.2.9-3.4-7.1-7.7-11.5-6.1zM223.3 558.6c-1.7 1.3-1.7 1.5.7 3.5 2.3 1.8 2.3 1.9.3.9-1.9-.9-2.3-.8-2.3.4 0 1.5 2.9 3.6 5 3.6.7 0 1-.7.7-1.4-.4-1-.1-1.3.7-1 1.8.7 2.8-2.3 1.6-4.5-1.3-2.5-4.5-3.2-6.7-1.5z"/></svg>